<?xml version="1.0" standalone="no"?>
<!DOCTYPE svg PUBLIC "-//W3C//DTD SVG 20010904//EN"
 "http://www.w3.org/TR/2001/REC-SVG-20010904/DTD/svg10.dtd">
<svg version="1.0" xmlns="http://www.w3.org/2000/svg"
 width="178.000000pt" height="199.000000pt" viewBox="0 0 178.000000 199.000000"
 preserveAspectRatio="xMidYMid meet">

<g transform="translate(0.000000,199.000000) scale(0.100000,-0.100000)"
fill="#000000" stroke="none">
<path d="M500 1759 c-201 -116 -375 -216 -387 -222 -20 -11 -7 -20 149 -110
l170 -98 212 122 c116 67 222 122 236 122 14 0 121 -55 238 -122 l212 -121
170 97 c93 54 168 98 167 99 -1 1 -141 81 -312 179 -170 98 -344 198 -385 222
-41 23 -81 43 -90 43 -8 0 -179 -95 -380 -211z"/>
<path d="M30 973 c0 -246 4 -453 8 -459 4 -5 169 -108 367 -229 198 -120 372
-227 388 -237 l27 -19 0 209 0 209 -215 123 c-118 67 -220 129 -227 138 -10
11 -14 81 -15 265 -2 138 -6 254 -10 258 -7 6 -65 41 -280 165 l-43 25 0 -448z"/>
<path d="M1565 1325 l-160 -93 -5 -253 c-3 -140 -9 -261 -13 -269 -4 -8 -107
-71 -227 -140 l-220 -125 0 -207 0 -206 183 111 c100 62 276 168 390 237 135
82 209 132 212 145 3 11 4 216 3 456 l-3 436 -160 -92z"/>
</g>
</svg>
